<?xml version="1.0" encoding="utf-8"?>
<!-- Generator: Adobe Illustrator 25.2.3, SVG Export Plug-In . SVG Version: 6.00 Build 0)  -->
<svg version="1.1" id="Layer_2_1_" xmlns="http://www.w3.org/2000/svg" xmlns:xlink="http://www.w3.org/1999/xlink" x="0px" y="0px"
	 viewBox="0 0 265 105" style="enable-background:new 0 0 265 105;" xml:space="preserve">
<style type="text/css">
	.st0{fill:#2621F6;}
</style>
<g>
	<path class="st0" d="M152,34.4c-1.3,1.4-1.6,3.2-1.6,5.1v39.8h13.5V21.9L152,34.4z"/>
	<polygon class="st0" points="150.3,3.1 150.3,24.3 163.8,10 163.8,3.1 	"/>
	<path class="st0" d="M143.5,29.5L143.5,29.5c-0.3-12.1-4.7-16.8-16.5-16.8c-5.5,0-25.8,0-25.8,0v90.3h13.2V79.2c2.2,0,8.2,0,12.6,0
		c11.8,0,16.2-4.9,16.5-17h0C143.5,61.9,143.5,29.8,143.5,29.5z M122.2,67.9c-5.3,0-7.8,0-7.8-4.6V28.4c0-4.6,2.5-4.6,7.8-4.6
		c5,0,7.8,0,7.8,4.6v34.9C130,67.9,127.2,67.8,122.2,67.9z"/>
	<path class="st0" d="M94.2,29.5L94.2,29.5c-0.3-12.1-4.7-16.8-16.5-16.8c-5.5,0-25.8,0-25.8,0v90.3H65V79.2c2.2,0,8.2,0,12.6,0
		c11.8,0,16.2-4.9,16.5-17h0C94.2,61.9,94.2,29.8,94.2,29.5z M72.9,67.9c-5.3,0-7.8,0-7.8-4.6V28.4c0-4.6,2.5-4.6,7.8-4.6
		c5,0,7.8,0,7.8,4.6v34.9C80.7,67.9,77.9,67.8,72.9,67.9z"/>
	<path class="st0" d="M249,79.2V28.5c0-4.6-2.8-4.6-7.8-4.6c-5.3,0-7.8,0-7.8,4.6v50.7h-13.4V12.7c0,0,20.6,0,26,0
		c11.8,0,16.2,4.9,16.5,17h0c0,0.3,0,49.6,0,49.6H249z"/>
	<path class="st0" d="M213.1,29.6c-0.3-12.1-4.9-17-16.7-17c-0.6,0-13.1,0-17.5,0l0,11.3c12.8,0,12.1,0,12.7,0c5,0,7.8,0,7.8,4.6
		v6.6c-2.4,0-8.1-0.1-12.3-0.1c-11.8,0-16.2,4.9-16.5,17h0c0,0.3,0,10.1,0,10.4h0c0.3,12.1,4.7,16.9,16.5,16.9c5.5,0,26,0,26,0
		L213.1,29.6z M199.8,63.4c0,4.6-2.5,4.6-7.8,4.6c-5,0-7.8,0-7.8-4.6V50.8c0-4.6,2.8-4.6,7.8-4.6c5.3,0,7.8,0,7.8,4.6V63.4z"/>
	<path class="st0" d="M45,29.6c-0.3-12.1-4.9-17-16.7-17c-0.6,0-13.1,0-17.5,0l0,11.3c12.8,0,12.1,0,12.7,0c5,0,7.8,0,7.8,4.6v6.6
		C29,35.1,23.3,35,19,35C7.2,35,2.8,39.8,2.5,52h0c0,0.3,0,10.1,0,10.4h0c0.3,11.4,4.2,16.3,14.6,16.9l10.7-11.3
		c-1.1,0.1-2.4,0.1-4,0.1c-5,0-7.8,0-7.8-4.6V50.8c0-4.6,2.8-4.6,7.8-4.6c5.3,0,7.8,0,7.8,4.6v28.4c0.5,0,13.4,0,13.4,0L45,29.6z"/>
</g>
</svg>
